<svg xmlns="http://www.w3.org/2000/svg" xmlns:xlink="http://www.w3.org/1999/xlink" width="48" height="48" viewBox="0 0 48 48" id="fuel"><defs><linearGradient id="b" x1="868.253" x2="937.656" y1="521.354" y2="588.736" gradientTransform="translate(-1326.968 -793.02) scale(1.53785)" gradientUnits="userSpaceOnUse" xlink:href="#a"></linearGradient><linearGradient id="a"><stop offset="0" stop-color="#24f3d2"></stop><stop offset=".394" stop-color="#0674f0"></stop><stop offset=".507" stop-color="#6961b5"></stop><stop offset=".813" stop-color="#f34660"></stop><stop offset="1" stop-color="#ee078d"></stop></linearGradient></defs><rect width="48" height="48" fill="url(#b)" rx="10.144" ry="10.144"></rect><path fill="#fff" d="m 33.267727,17.021487 -1.007812,0.002 c -0.676001,0.001 -1.355844,0.160034 -1.964844,0.457034 l -2.472656,1.212891 -0.119141,-0.185547 c -0.273,-0.423 -0.736281,-0.677547 -1.238281,-0.685547 l -1.859375,-0.02734 c -0.901,0.016 -1.75786,0.238656 -2.50586,0.722656 l -7.380859,4.769532 c -0.111,0.072 -0.19075,0.186453 -0.21875,0.314453 -0.028,0.13 -0.0017,0.265953 0.07031,0.376953 l 0.271485,0.419868 -1.261719,0.814453 c -0.232,0.15 -0.296484,0.459406 -0.146484,0.691406 l 0.269531,0.419922 -2.47461,1.599609 c -0.232,0.149 -0.298437,0.459407 -0.148437,0.691407 0.149,0.23 0.458406,0.300437 0.691406,0.148437 l 2.47461,-1.601562 0.271484,0.419921 0.271484,0.419922 -2.476562,1.601563 c -0.232,0.149 -0.298438,0.457453 -0.148438,0.689453 0.096,0.147 0.255922,0.230469 0.419922,0.230469 0.093,0 0.187485,-0.02508 0.271485,-0.08008 l 2.476562,-1.601563 0.271484,0.421875 c 0.072,0.111 0.184454,0.187797 0.314454,0.216797 0.035,0.007 0.07047,0.01172 0.105468,0.01172 0.096,0 0.188532,-0.02708 0.269532,-0.08008 l 1.261718,-0.814453 0.8125,1.259766 C 18.845334,30.596421 19.651803,31 20.472803,31 c 0.465,0 0.933563,-0.128437 1.351563,-0.398437 l 5.039062,-3.257813 c 1.158,-0.749001 1.490188,-2.297078 0.742188,-3.455078 L 27.4396,23.630862 28.486475,23.36133 c 0.473,-0.122 0.846438,-0.453203 1.023438,-0.908203 0.140999,-0.362 0.132234,-0.749609 -0.0098,-1.099609 l 2.197266,-1.144531 c 0.344999,-0.18 0.734046,-0.278203 1.123046,-0.283204 l 0.482422,-0.0059 c 0.269,-0.003 0.519032,-0.110687 0.707032,-0.304687 0.187999,-0.194 0.287249,-0.449703 0.28125,-0.720704 l -0.02148,-0.898437 c -0.014,-0.547 -0.453953,-0.974609 -1.001953,-0.974609 z m 0,1.001953 0.02344,0.896484 -0.482422,0.0059 c -0.545,0.007 -1.090219,0.144485 -1.574219,0.396485 l -2.25,1.169922 -0.617188,-0.953125 2.367188,-1.160156 c 0.473,-0.231 0.999391,-0.353516 1.525391,-0.353516 l 1.007812,-0.002 z m -8.675781,0.771484 1.857422,0.02539 c 0.167,0.002 0.323062,0.08751 0.414062,0.228515 l 1.669922,2.583985 c 0.087,0.139 0.103922,0.304078 0.04492,0.455078 -0.059,0.151 -0.184797,0.264687 -0.341797,0.304687 l -1.71875,0.441407 c -0.156,0.04 -0.281844,0.151734 -0.339844,0.302734 -0.059,0.149 -0.04308,0.318125 0.04492,0.453125 l 0.542969,0.839844 c 0.449,0.694 0.248687,1.625218 -0.445313,2.074219 l -0.419922,0.271484 -1.357421,-2.101563 c -0.44,-0.681 -1.34025,-0.880797 -2.03125,-0.466797 -0.008,0.004 -0.01644,0.0067 -0.02344,0.01172 -0.006,0.004 -0.01158,0.0077 -0.01758,0.01172 l -2.521484,1.628906 c -0.336,0.218 -0.568344,0.55236 -0.652344,0.94336 -0.084,0.393 -0.01097,0.793859 0.207031,1.130859 l 1.308594,2.019531 c -0.6,0.141 -1.252469,-0.09067 -1.605469,-0.638672 l -1.083984,-1.679687 0,-0.002 -2.171875,-3.357422 -0.269532,-0.419922 6.960938,-4.5 c 0.583,-0.376 1.283219,-0.561547 1.949219,-0.560547 z m 9.757812,2.583985 c -0.183,0 -0.352453,0.101718 -0.439453,0.261718 -0.344,0.633 -0.701578,1.14561 -1.017578,1.59961 -0.582,0.833 -1.042969,1.489842 -1.042969,2.339843 0,1.378999 1.122,2.5 2.5,2.5 1.378,0 2.5,-1.121001 2.5,-2.5 0,-0.850001 -0.459015,-1.507844 -1.041015,-2.339844 -0.316,-0.453 -0.674532,-0.96561 -1.019532,-1.599609 -0.088,-0.16 -0.256453,-0.261718 -0.439453,-0.261718 z m 0,1.484374 c 0.222,0.352001 0.437672,0.662219 0.638672,0.949219 0.5,0.716 0.861328,1.231578 0.861328,1.767578 0,0.828 -0.673,1.5 -1.5,1.5 -0.827,0 -1.5,-0.673001 -1.5,-1.5 0,-0.535 0.361328,-1.053531 0.861328,-1.769531 0.2,-0.286001 0.416672,-0.597265 0.638672,-0.947266 z m -11.068359,2.125 c 0.035,0 0.07242,0.0047 0.107422,0.01172 0.131,0.028 0.242453,0.103797 0.314453,0.216797 l 1.357422,2.101563 -3.359375,2.171875 -1.357422,-2.09961 c -0.072,-0.112 -0.09636,-0.246953 -0.06836,-0.376953 0.028,-0.131 0.103797,-0.242453 0.216797,-0.314453 l 1.839844,-1.191406 0.123047,1.111328 -0.597656,0.386719 c -0.232,0.149 -0.298438,0.459406 -0.148438,0.691406 0.096,0.147 0.255922,0.228515 0.419922,0.228515 0.093,0 0.187484,-0.02508 0.271484,-0.08008 l 0.855469,-0.554687 c 0.159,-0.103 0.246563,-0.285609 0.226563,-0.474609 l -0.201172,-1.828126 z m -7.900391,0.25 1.628906,2.517579 -0.839843,0.544921 -0.814453,-1.259765 -0.542969,-0.839844 -0.271485,-0.419922 0.839844,-0.542969 z"></path></svg>